<svg width="100" height="150" viewBox="0 0 24 24" fill="none" xmlns="http://www.w3.org/2000/svg">
<path d="M12 0C7.31 0 3.5 3.81 3.5 8.5V14.5C3.5 19.19 7.31 23 12 23C16.69 23 20.5 19.19 20.5 14.5V8.5C20.5 3.81 16.69 0 12 0ZM12 2C15.58 2 18.5 4.92 18.5 8.5V14.5C18.5 18.08 15.58 21 12 21C8.42 21 5.5 18.08 5.5 14.5V8.5C5.5 4.92 8.42 2 12 4Z" fill="#80FFDB"/>
<circle cx="9" cy="8" r="1.5" fill="#146C94"/>
<circle cx="15" cy="8" r="1.5" fill="#146C94"/>
<path d="M9 13H15V14H9V13Z" fill="#146C94"/>
<path d="M12 16C10.62 16 9.5 17.12 9.5 18.5C9.5 19.88 10.62 21 12 21C13.38 21 14.5 19.88 14.5 18.5C14.5 17.12 13.38 16 12 16Z" fill="#146C94"/>
</svg>