<svg width="100" height="150" viewBox="0 0 24 24" fill="none" xmlns="http://www.w3.org/2000/svg">
<path d="M12 2C6.48 2 2 6.48 2 12V22H22V12C22 6.48 17.52 2 12 2ZM12 4C14.76 4 17 6.24 17 9V11H7V9C7 6.24 9.24 4 12 4ZM5 13C4.45 13 4 13.45 4 14V16H20V14C20 13.45 19.55 13 19 13H5ZM4 18V20H20V18H4Z" fill="#146C94"/>
<circle cx="12" cy="7" r="2" fill="white"/>
<rect x="11" y="9" width="2" height="6" fill="white"/>
<rect x="8" y="11" width="2" height="4" fill="white" transform="rotate(-30 8 11)"/>
<rect x="14" y="11" width="2" height="4" fill="white" transform="rotate(30 14 11)"/>
<rect x="10" y="15" width="2" height="4" fill="white"/>
<rect x="12" y="15" width="2" height="4" fill="white"/>
</svg>