<svg width="200" height="200" viewBox="0 0 24 24" fill="none" xmlns="http://www.w3.org/2000/svg">
<path d="M12 2C6.48 2 2 6.48 2 12V22H22V12C22 6.48 17.52 2 12 2ZM12 4C14.76 4 17 6.24 17 9V11H7V9C7 6.24 9.24 4 12 4ZM5 13C4.45 13 4 13.45 4 14V16H20V14C20 13.45 19.55 13 19 13H5ZM4 18V20H20V18H4Z" fill="#146C94"/>
<rect x="7" y="8" width="10" height="2" fill="white"/>
<rect x="7" y="10" width="2" height="2" fill="white"/>
<rect x="15" y="10" width="2" height="2" fill="white"/>
<circle cx="12" cy="16" r="1" fill="white"/>
</svg>